<svg width="40" height="40" viewBox="0 0 40 40" fill="none" xmlns="http://www.w3.org/2000/svg">
<g id="calendar-time">
<path id="Vector" d="M19.6583 35H8.33333C7.44928 35 6.60143 34.6488 5.97631 34.0237C5.35119 33.3986 5 32.5507 5 31.6667V11.6667C5 10.7826 5.35119 9.93477 5.97631 9.30964C6.60143 8.68452 7.44928 8.33333 8.33333 8.33333H28.3333C29.2174 8.33333 30.0652 8.68452 30.6904 9.30964C31.3155 9.93477 31.6667 10.7826 31.6667 11.6667V18.3333H5M25 5V11.6667M11.6667 5V11.6667M30 27.4933V30L31.6667 31.6667M23.3333 30C23.3333 31.7681 24.0357 33.4638 25.286 34.714C26.5362 35.9643 28.2319 36.6667 30 36.6667C31.7681 36.6667 33.4638 35.9643 34.714 34.714C35.9643 33.4638 36.6667 31.7681 36.6667 30C36.6667 28.2319 35.9643 26.5362 34.714 25.286C33.4638 24.0357 31.7681 23.3333 30 23.3333C28.2319 23.3333 26.5362 24.0357 25.286 25.286C24.0357 26.5362 23.3333 28.2319 23.3333 30Z" stroke="white" stroke-width="3" stroke-linecap="round" stroke-linejoin="round"/>
</g>
</svg>
