<svg width="40" height="40" viewBox="0 0 40 40" fill="none" xmlns="http://www.w3.org/2000/svg">
<g id="chart-bar">
<path id="Vector" d="M15 31.6667V21.6667C15 21.2246 14.8244 20.8007 14.5118 20.4881C14.1993 20.1756 13.7754 20 13.3333 20H6.66667C6.22464 20 5.80072 20.1756 5.48816 20.4881C5.17559 20.8007 5 21.2246 5 21.6667V31.6667C5 32.1087 5.17559 32.5326 5.48816 32.8452C5.80072 33.1577 6.22464 33.3333 6.66667 33.3333M15 31.6667C15 32.1087 14.8244 32.5326 14.5118 32.8452C14.1993 33.1577 13.7754 33.3333 13.3333 33.3333H6.66667M15 31.6667C15 32.1087 15.1756 32.5326 15.4882 32.8452C15.8007 33.1577 16.2246 33.3333 16.6667 33.3333H23.3333C23.7754 33.3333 24.1993 33.1577 24.5118 32.8452C24.8244 32.5326 25 32.1087 25 31.6667M15 31.6667V15C15 14.558 15.1756 14.134 15.4882 13.8215C15.8007 13.5089 16.2246 13.3333 16.6667 13.3333H23.3333C23.7754 13.3333 24.1993 13.5089 24.5118 13.8215C24.8244 14.134 25 14.558 25 15V31.6667M6.66667 33.3333H30M25 31.6667C25 32.1087 25.1756 32.5326 25.4882 32.8452C25.8007 33.1577 26.2246 33.3333 26.6667 33.3333H33.3333C33.7754 33.3333 34.1993 33.1577 34.5118 32.8452C34.8244 32.5326 35 32.1087 35 31.6667V8.33332C35 7.8913 34.8244 7.46737 34.5118 7.15481C34.1993 6.84225 33.7754 6.66666 33.3333 6.66666H26.6667C26.2246 6.66666 25.8007 6.84225 25.4882 7.15481C25.1756 7.46737 25 7.8913 25 8.33332V31.6667Z" stroke="white" stroke-width="3" stroke-linecap="round" stroke-linejoin="round"/>
</g>
</svg>
