<svg width="40" height="40" viewBox="0 0 40 40" fill="none" xmlns="http://www.w3.org/2000/svg">
<g id="discount-check">
<path id="Vector" d="M15 20L18.3334 23.3333L25 16.6666M8.33331 12C8.33331 11.0275 8.71962 10.0949 9.40725 9.40725C10.0949 8.71962 11.0275 8.33331 12 8.33331H13.6666C14.6348 8.33275 15.5635 7.94931 16.25 7.26664L17.4166 6.09998C17.7574 5.75731 18.1625 5.48538 18.6087 5.29982C19.0549 5.11426 19.5334 5.01874 20.0166 5.01874C20.4999 5.01874 20.9784 5.11426 21.4246 5.29982C21.8708 5.48538 22.2759 5.75731 22.6166 6.09998L23.7833 7.26664C24.47 7.94998 25.4 8.33331 26.3666 8.33331H28.0333C29.0058 8.33331 29.9384 8.71962 30.626 9.40725C31.3137 10.0949 31.7 11.0275 31.7 12V13.6666C31.7 14.6333 32.0833 15.5633 32.7666 16.25L33.9333 17.4166C34.276 17.7574 34.5479 18.1625 34.7335 18.6087C34.919 19.0549 35.0145 19.5334 35.0145 20.0166C35.0145 20.4999 34.919 20.9784 34.7335 21.4246C34.5479 21.8708 34.276 22.2759 33.9333 22.6166L32.7666 23.7833C32.084 24.4698 31.7005 25.3985 31.7 26.3666V28.0333C31.7 29.0058 31.3137 29.9384 30.626 30.626C29.9384 31.3137 29.0058 31.7 28.0333 31.7H26.3666C25.3985 31.7005 24.4698 32.084 23.7833 32.7666L22.6166 33.9333C22.2759 34.276 21.8708 34.5479 21.4246 34.7335C20.9784 34.919 20.4999 35.0145 20.0166 35.0145C19.5334 35.0145 19.0549 34.919 18.6087 34.7335C18.1625 34.5479 17.7574 34.276 17.4166 33.9333L16.25 32.7666C15.5635 32.084 14.6348 31.7005 13.6666 31.7H12C11.0275 31.7 10.0949 31.3137 9.40725 30.626C8.71962 29.9384 8.33331 29.0058 8.33331 28.0333V26.3666C8.33275 25.3985 7.94931 24.4698 7.26664 23.7833L6.09998 22.6166C5.75731 22.2759 5.48538 21.8708 5.29982 21.4246C5.11426 20.9784 5.01874 20.4999 5.01874 20.0166C5.01874 19.5334 5.11426 19.0549 5.29982 18.6087C5.48538 18.1625 5.75731 17.7574 6.09998 17.4166L7.26664 16.25C7.94931 15.5635 8.33275 14.6348 8.33331 13.6666V12Z" stroke="white" stroke-width="3" stroke-linecap="round" stroke-linejoin="round"/>
</g>
</svg>
