<svg width="49" height="48" viewBox="0 0 49 48" fill="none" xmlns="http://www.w3.org/2000/svg">
<g id="phone-check">
<path id="Vector" d="M30.5 12L34.5 16L42.5 8M10.5 8H18.5L22.5 18L17.5 21C19.6419 25.3431 23.1569 28.8581 27.5 31L30.5 26L40.5 30V38C40.5 39.0609 40.0786 40.0783 39.3284 40.8284C38.5783 41.5786 37.5609 42 36.5 42C28.6985 41.5259 21.3403 38.213 15.8137 32.6864C10.287 27.1597 6.9741 19.8015 6.5 12C6.5 10.9391 6.92143 9.92172 7.67157 9.17157C8.42172 8.42143 9.43913 8 10.5 8Z" stroke="#D5D5D5" stroke-width="3" stroke-linecap="round" stroke-linejoin="round"/>
</g>
</svg>
