<svg width="49" height="48" viewBox="0 0 49 48" fill="none" xmlns="http://www.w3.org/2000/svg">
<g id="report-money">
<path id="Vector" d="M18.5 10H14.5C13.4391 10 12.4217 10.4214 11.6716 11.1716C10.9214 11.9217 10.5 12.9391 10.5 14V38C10.5 39.0609 10.9214 40.0783 11.6716 40.8284C12.4217 41.5786 13.4391 42 14.5 42H34.5C35.5609 42 36.5783 41.5786 37.3284 40.8284C38.0786 40.0783 38.5 39.0609 38.5 38V14C38.5 12.9391 38.0786 11.9217 37.3284 11.1716C36.5783 10.4214 35.5609 10 34.5 10H30.5M18.5 10C18.5 8.93913 18.9214 7.92172 19.6716 7.17157C20.4217 6.42143 21.4391 6 22.5 6H26.5C27.5609 6 28.5783 6.42143 29.3284 7.17157C30.0786 7.92172 30.5 8.93913 30.5 10M18.5 10C18.5 11.0609 18.9214 12.0783 19.6716 12.8284C20.4217 13.5786 21.4391 14 22.5 14H26.5C27.5609 14 28.5783 13.5786 29.3284 12.8284C30.0786 12.0783 30.5 11.0609 30.5 10M28.5 22H23.5C22.7044 22 21.9413 22.3161 21.3787 22.8787C20.8161 23.4413 20.5 24.2044 20.5 25C20.5 25.7957 20.8161 26.5587 21.3787 27.1213C21.9413 27.6839 22.7044 28 23.5 28H25.5C26.2957 28 27.0587 28.3161 27.6213 28.8787C28.1839 29.4413 28.5 30.2044 28.5 31C28.5 31.7957 28.1839 32.5587 27.6213 33.1213C27.0587 33.6839 26.2957 34 25.5 34H20.5M24.5 34V36M24.5 20V22" stroke="#C1C1C1" stroke-width="3" stroke-linecap="round" stroke-linejoin="round"/>
</g>
</svg>
