<?xml version="1.0" encoding="UTF-8"?>
<svg id="Layer_2" data-name="Layer 2" xmlns="http://www.w3.org/2000/svg" viewBox="0 0 337.86 263.74">
  <defs>
    <style>
      .cls-1 {
        fill: #000;
      }

      .cls-1, .cls-2, .cls-3 {
        stroke-width: 0px;
      }

      .cls-2 {
        fill: #fff500;
      }

      .cls-3 {
        fill: #fff;
      }
    </style>
  </defs>
  <g id="Layer_1-2" data-name="Layer 1">
    <rect class="cls-2" y="207.3" width="337.86" height="56.44"/>
    <polygon class="cls-3" points="256.24 108.15 328.17 0 276.03 0 201.42 108.15 201.42 0 146.07 0 102.74 84.23 58.62 0 4.07 0 4.07 190.93 43.91 190.93 43.91 57.23 44.45 57.23 86.7 142.8 119.06 142.8 161.57 55.89 162.11 55.89 162.11 190.93 201.42 190.93 201.42 171.97 226.29 137.53 276.03 190.93 333.79 190.93 256.24 108.15"/>
    <g>
      <path class="cls-1" d="M19.46,246.98v-22.93h4.39l9.76,16.18h-2.33l9.6-16.18h4.36l.07,22.93h-4.98l-.03-15.3h.92l-7.66,12.87h-2.39l-7.83-12.87h1.11v15.3h-4.98Z"/>
      <path class="cls-1" d="M61.87,247.38c-1.81,0-3.49-.3-5.03-.88-1.54-.59-2.87-1.42-4-2.49-1.12-1.07-2-2.32-2.62-3.76-.62-1.44-.93-3.01-.93-4.72s.31-3.27.93-4.72c.62-1.44,1.5-2.7,2.64-3.76,1.14-1.07,2.47-1.9,4-2.49,1.53-.59,3.19-.88,4.98-.88s3.48.3,4.99.88c1.52.59,2.84,1.42,3.96,2.49,1.12,1.07,2,2.32,2.64,3.75.63,1.43.95,3.01.95,4.73s-.32,3.28-.95,4.73c-.63,1.45-1.51,2.71-2.64,3.76-1.12,1.06-2.44,1.88-3.96,2.48-1.52.59-3.17.88-4.96.88ZM61.84,242.86c1.03,0,1.97-.17,2.83-.53.86-.35,1.62-.85,2.28-1.51.66-.65,1.16-1.43,1.52-2.32.36-.9.54-1.89.54-2.98s-.18-2.08-.54-2.98c-.36-.89-.86-1.67-1.51-2.32s-1.4-1.16-2.28-1.51-1.82-.53-2.85-.53-1.97.18-2.83.53-1.62.85-2.28,1.51c-.65.65-1.16,1.43-1.52,2.32-.36.9-.54,1.89-.54,2.98s.18,2.06.54,2.97c.36.9.86,1.69,1.51,2.34s1.4,1.16,2.28,1.51c.87.35,1.82.53,2.85.53Z"/>
      <path class="cls-1" d="M78.37,246.98v-22.93h4.39l13.53,16.51h-2.13v-16.51h5.24v22.93h-4.36l-13.56-16.51h2.13v16.51h-5.24Z"/>
      <path class="cls-1" d="M115.91,247.38c-1.81,0-3.48-.29-5-.87-1.52-.58-2.84-1.4-3.96-2.48-1.12-1.07-2-2.32-2.62-3.76-.62-1.44-.93-3.02-.93-4.75s.31-3.31.93-4.75c.62-1.44,1.5-2.7,2.64-3.76,1.14-1.07,2.47-1.9,4-2.48,1.53-.58,3.21-.87,5.04-.87,2.03,0,3.86.34,5.48,1.02s3,1.66,4.11,2.95l-3.41,3.14c-.83-.87-1.74-1.52-2.72-1.95-.98-.43-2.05-.64-3.21-.64s-2.13.18-3.05.53-1.71.85-2.38,1.51-1.18,1.43-1.54,2.32c-.36.9-.54,1.89-.54,2.98s.18,2.05.54,2.95c.36.89.87,1.67,1.54,2.34s1.45,1.17,2.36,1.52c.91.35,1.9.53,3,.53s2.07-.17,3.06-.51,1.96-.91,2.9-1.72l3.01,3.83c-1.24.94-2.69,1.66-4.34,2.16-1.65.5-3.29.76-4.93.76ZM120.33,243.77v-8.62h4.85v9.3l-4.85-.69Z"/>
      <path class="cls-1" d="M141.22,247.38c-1.81,0-3.49-.3-5.03-.88-1.54-.59-2.87-1.42-4-2.49-1.12-1.07-2-2.32-2.62-3.76-.62-1.44-.93-3.01-.93-4.72s.31-3.27.93-4.72c.62-1.44,1.5-2.7,2.64-3.76,1.14-1.07,2.47-1.9,4-2.49,1.53-.59,3.19-.88,4.98-.88s3.48.3,4.99.88c1.52.59,2.84,1.42,3.96,2.49,1.12,1.07,2,2.32,2.64,3.75.63,1.43.95,3.01.95,4.73s-.32,3.28-.95,4.73c-.63,1.45-1.51,2.71-2.64,3.76-1.12,1.06-2.44,1.88-3.96,2.48-1.52.59-3.17.88-4.96.88ZM141.19,242.86c1.03,0,1.97-.17,2.83-.53.86-.35,1.62-.85,2.28-1.51.66-.65,1.16-1.43,1.52-2.32.36-.9.54-1.89.54-2.98s-.18-2.08-.54-2.98c-.36-.89-.86-1.67-1.51-2.32s-1.4-1.16-2.28-1.51-1.82-.53-2.85-.53-1.97.18-2.83.53-1.62.85-2.28,1.51c-.65.65-1.16,1.43-1.52,2.32-.36.9-.54,1.89-.54,2.98s.18,2.06.54,2.97c.36.9.86,1.69,1.51,2.34s1.4,1.16,2.28,1.51c.87.35,1.82.53,2.85.53Z"/>
      <path class="cls-1" d="M157.73,246.98v-22.93h5.31v18.6h11.5v4.32h-16.8Z"/>
      <path class="cls-1" d="M186.78,246.98v-22.93h5.27v22.93h-5.27ZM191.53,241.74l-.29-6.12,10.97-11.56h5.9l-9.89,10.64-2.95,3.14-3.73,3.9ZM202.47,246.98l-8.15-9.99,3.47-3.76,10.87,13.75h-6.19Z"/>
      <path class="cls-1" d="M206.99,246.98l10.22-22.93h5.24l10.25,22.93h-5.57l-8.38-20.24h2.1l-8.42,20.24h-5.44ZM212.09,242.07l1.41-4.03h11.79l1.44,4.03h-14.64Z"/>
      <path class="cls-1" d="M235.09,246.98v-22.93h4.39l13.53,16.51h-2.13v-16.51h5.24v22.93h-4.36l-13.56-16.51h2.13v16.51h-5.24Z"/>
      <path class="cls-1" d="M258.54,246.98l10.22-22.93h5.24l10.25,22.93h-5.57l-8.38-20.24h2.1l-8.42,20.24h-5.44ZM263.64,242.07l1.41-4.03h11.79l1.44,4.03h-14.64Z"/>
      <path class="cls-1" d="M286.63,246.98v-22.93h5.31v22.93h-5.31Z"/>
      <path class="cls-1" d="M297.38,246.98v-22.93h4.39l13.53,16.51h-2.13v-16.51h5.24v22.93h-4.36l-13.56-16.51h2.13v16.51h-5.24Z"/>
    </g>
  </g>
</svg>