<?xml version="1.0" encoding="UTF-8"?>
<svg id="Layer_2" data-name="Layer 2" xmlns="http://www.w3.org/2000/svg" viewBox="0 0 2359.94 476.69">
  <defs>
    <style>
      .cls-1 {
        fill: #1e1e1e;
      }

      .cls-1, .cls-2, .cls-3 {
        stroke-width: 0px;
      }

      .cls-2 {
        fill: #fff500;
      }

      .cls-3 {
        fill: #fff;
      }
    </style>
  </defs>
  <g id="Layer_1-2" data-name="Layer 1">
    <g>
      <path class="cls-3" d="M651.9,303.84v-130.98h25.07l55.76,92.44h-13.29l54.82-92.44h24.89l.38,130.98h-28.44l-.19-87.39h5.24l-43.79,73.55h-13.66l-44.72-73.55h6.37v87.39h-28.45Z"/>
      <path class="cls-3" d="M894.22,306.09c-10.36,0-19.93-1.69-28.73-5.05-8.79-3.38-16.41-8.11-22.83-14.24-6.42-6.1-11.41-13.28-14.97-21.51-3.56-8.25-5.33-17.22-5.33-26.95s1.77-18.71,5.33-26.95c3.56-8.23,8.57-15.4,15.06-21.51,6.49-6.12,14.1-10.86,22.83-14.24,8.73-3.36,18.21-5.05,28.45-5.05s19.86,1.69,28.53,5.05c8.68,3.38,16.22,8.11,22.64,14.24,6.42,6.1,11.45,13.24,15.06,21.41,3.62,8.17,5.43,17.19,5.43,27.05s-1.8,18.74-5.43,27.05c-3.62,8.28-8.64,15.46-15.06,21.51-6.42,6.07-13.96,10.76-22.64,14.14-8.67,3.36-18.12,5.05-28.34,5.05ZM894.04,280.27c5.86,0,11.25-1,16.18-3.01,4.93-1.99,9.27-4.86,13.01-8.6,3.75-3.74,6.65-8.17,8.71-13.28,2.06-5.13,3.08-10.8,3.08-17.04s-1.02-11.91-3.08-17.04c-2.06-5.11-4.93-9.54-8.61-13.28-3.68-3.74-8.02-6.61-13.01-8.6-4.99-1.99-10.41-3.01-16.27-3.01s-11.26,1.01-16.19,3.01c-4.93,1.99-9.26,4.86-13.01,8.6-3.74,3.74-6.64,8.17-8.7,13.28-2.06,5.13-3.09,10.8-3.09,17.04s1.03,11.76,3.09,16.94c2.06,5.17,4.92,9.64,8.6,13.37,3.68,3.74,8.02,6.61,13.01,8.6,4.99,2.01,10.41,3.01,16.28,3.01Z"/>
      <path class="cls-3" d="M988.53,303.84v-130.98h25.07l77.28,94.3h-12.16v-94.3h29.94v130.98h-24.89l-77.47-94.3h12.16v94.3h-29.94Z"/>
      <path class="cls-3" d="M1202.97,306.09c-10.36,0-19.87-1.67-28.54-4.96-8.67-3.31-16.22-8.02-22.64-14.14-6.42-6.1-11.41-13.28-14.97-21.51-3.56-8.25-5.33-17.28-5.33-27.14s1.77-18.89,5.33-27.14c3.56-8.23,8.57-15.4,15.06-21.51,6.49-6.12,14.1-10.84,22.83-14.14,8.73-3.29,18.34-4.96,28.82-4.96,11.6,0,22.04,1.93,31.34,5.8,9.3,3.87,17.12,9.48,23.49,16.85l-19.46,17.96c-4.74-4.98-9.93-8.7-15.53-11.12-5.62-2.44-11.73-3.66-18.34-3.66s-12.16,1.01-17.4,3.01c-5.24,1.99-9.77,4.86-13.57,8.6-3.8,3.74-6.73,8.17-8.79,13.28-2.06,5.13-3.09,10.8-3.09,17.04s1.03,11.72,3.09,16.85c2.06,5.11,4.99,9.56,8.79,13.37,3.8,3.81,8.3,6.71,13.48,8.7,5.17,2.01,10.88,3.01,17.12,3.01s11.82-.98,17.5-2.91c5.67-1.93,11.19-5.2,16.57-9.82l17.21,21.9c-7.11,5.37-15.38,9.48-24.79,12.34-9.43,2.87-18.81,4.32-28.16,4.32ZM1228.23,285.51v-49.23h27.69v53.15l-27.69-3.93Z"/>
      <path class="cls-3" d="M1347.62,306.09c-10.36,0-19.93-1.69-28.73-5.05-8.79-3.38-16.41-8.11-22.83-14.24-6.42-6.1-11.41-13.28-14.97-21.51-3.56-8.25-5.33-17.22-5.33-26.95s1.77-18.71,5.33-26.95c3.56-8.23,8.57-15.4,15.06-21.51,6.49-6.12,14.1-10.86,22.83-14.24,8.73-3.36,18.21-5.05,28.45-5.05s19.86,1.69,28.53,5.05c8.68,3.38,16.22,8.11,22.64,14.24,6.42,6.1,11.45,13.24,15.06,21.41,3.62,8.17,5.43,17.19,5.43,27.05s-1.8,18.74-5.43,27.05c-3.62,8.28-8.64,15.46-15.06,21.51-6.42,6.07-13.96,10.76-22.64,14.14-8.67,3.36-18.12,5.05-28.34,5.05ZM1347.43,280.27c5.86,0,11.25-1,16.18-3.01,4.93-1.99,9.27-4.86,13.01-8.6,3.75-3.74,6.65-8.17,8.71-13.28,2.06-5.13,3.08-10.8,3.08-17.04s-1.02-11.91-3.08-17.04c-2.06-5.11-4.93-9.54-8.61-13.28-3.68-3.74-8.02-6.61-13.01-8.6-4.99-1.99-10.41-3.01-16.27-3.01s-11.26,1.01-16.19,3.01c-4.93,1.99-9.26,4.86-13.01,8.6-3.74,3.74-6.64,8.17-8.7,13.28-2.06,5.13-3.09,10.8-3.09,17.04s1.03,11.76,3.09,16.94c2.06,5.17,4.92,9.64,8.6,13.37,3.68,3.74,8.02,6.61,13.01,8.6,4.99,2.01,10.41,3.01,16.28,3.01Z"/>
      <path class="cls-3" d="M1441.92,303.84v-130.98h30.31v106.29h65.68v24.7h-95.99Z"/>
      <path class="cls-3" d="M1607.9,303.84v-130.98h30.13v130.98h-30.13ZM1635.03,273.9l-1.68-34.99,62.68-66.06h33.69l-56.51,60.82-16.84,17.96-21.34,22.28ZM1697.53,303.84l-46.59-57.08,19.83-21.51,62.12,78.58h-35.37Z"/>
      <path class="cls-3" d="M1723.35,303.84l58.38-130.98h29.94l58.56,130.98h-31.81l-47.9-115.64h11.97l-48.09,115.64h-31.06ZM1752.54,275.78l8.05-23.03h67.36l8.24,23.03h-83.65Z"/>
      <path class="cls-3" d="M1883.9,303.84v-130.98h25.07l77.28,94.3h-12.16v-94.3h29.94v130.98h-24.89l-77.47-94.3h12.16v94.3h-29.94Z"/>
      <path class="cls-3" d="M2017.88,303.84l58.38-130.98h29.94l58.56,130.98h-31.81l-47.9-115.64h11.97l-48.09,115.64h-31.06ZM2047.07,275.78l8.05-23.03h67.36l8.24,23.03h-83.65Z"/>
      <path class="cls-3" d="M2178.43,303.84v-130.98h30.31v130.98h-30.31Z"/>
      <path class="cls-3" d="M2239.81,303.84v-130.98h25.07l77.28,94.3h-12.16v-94.3h29.94v130.98h-24.89l-77.47-94.3h12.16v94.3h-29.94Z"/>
    </g>
    <rect class="cls-2" width="476.69" height="476.69" rx="128.53" ry="128.53"/>
    <polygon class="cls-1" points="333.26 252.13 411.45 134.57 354.77 134.57 273.67 252.13 273.67 134.57 213.49 134.57 166.4 226.14 118.44 134.57 59.14 134.57 59.14 342.12 102.45 342.12 102.45 196.78 103.03 196.78 148.96 289.8 184.13 289.8 230.35 195.33 230.94 195.33 230.94 342.12 273.67 342.12 273.67 321.51 300.7 284.07 354.77 342.12 417.55 342.12 333.26 252.13"/>
  </g>
</svg>